<svg width="13" height="11" viewBox="0 0 13 11" fill="none" xmlns="http://www.w3.org/2000/svg">
<path d="M11.2056 0.0901222C11.2056 0.0901222 12.3388 -0.351753 12.2444 0.721373C12.2129 1.16325 11.9296 2.70982 11.7093 4.38264L10.9538 9.33797C10.9538 9.33797 10.8909 10.0639 10.3242 10.1902C9.75762 10.3164 8.90773 9.74829 8.75032 9.62202C8.62441 9.52735 6.38948 8.10702 5.60251 7.41265C5.38215 7.22327 5.13033 6.84451 5.63398 6.40264L8.9392 3.2464C9.31694 2.86764 9.69468 1.98389 8.12076 3.05702L3.71382 6.05547C3.71382 6.05547 3.21017 6.37108 2.26584 6.08703L0.219748 5.45577C0.219748 5.45577 -0.53573 4.98234 0.754877 4.50887C3.9027 3.02543 7.77452 1.51043 11.2056 0.0901222Z" fill="black"/>
</svg>
